<mxfile host="app.diagrams.net" modified="2024-04-23T03:51:42.769Z" agent="Mozilla/5.0 (Windows NT 10.0; Win64; x64) AppleWebKit/537.36 (KHTML, like Gecko) Chrome/122.0.0.0 Safari/537.36 Edg/122.0.0.0" version="24.2.1" etag="6NML_SuNG14sEEGBeM-d" type="github">
  <diagram name="第 1 页" id="w53-6gARzEQDKpSf7sX9">
    <mxGraphModel>
      <root>
        <mxCell id="0" />
        <mxCell id="1" parent="0" />
      </root>
    </mxGraphModel>
  </diagram>
</mxfile>
